<!--?xml version="1.0" encoding="utf-8"?-->
<!-- Generator: Adobe Illustrator 18.1.1, SVG Export Plug-In . SVG Version: 6.00 Build 0)  -->

<svg version="1.1" id="_x32_" xmlns="http://www.w3.org/2000/svg" xmlns:xlink="http://www.w3.org/1999/xlink" x="0px" y="0px" viewBox="0 0 512 512" style="width: 256px; height: 256px; opacity: 1;" xml:space="preserve">
<g>
	<path class="st0" d="M223.864,85.549c23.636,0,42.778-19.158,42.778-42.77C266.642,19.142,247.5,0,223.864,0
		c-23.636,0-42.779,19.142-42.779,42.778C181.085,66.391,200.228,85.549,223.864,85.549z" style="fill: rgb(75, 75, 75);"></path>
	<path class="st0" d="M368.848,197.517h-34.799l-10.715-56.612c-4.638-24.244-22.549-43.282-43.275-43.282H167.668
		c-20.726,0-43.274,22.549-43.274,43.282v143.768c0,10.364,8.396,18.767,18.758,18.767c10.363,0,18.775-8.403,18.775-18.767V166.468
		h8.651v320.88c0,13.617,11.034,24.651,24.644,24.651c13.625,0,24.66-11.034,24.66-24.651V301.138h7.964v186.211
		c0,13.617,11.034,24.651,24.66,24.651c13.609,0,24.644-11.034,24.644-24.651v-320.88h8.668l7.644,48.944
		c1.759,11.298,11.498,19.63,22.932,19.63h52.454c10.362,0,18.758-8.396,18.758-18.759
		C387.606,205.905,379.21,197.517,368.848,197.517z" style="fill: rgb(75, 75, 75);"></path>
</g>
</svg>
