<!--?xml version="1.0" encoding="utf-8"?-->
<!-- Generator: Adobe Illustrator 18.1.1, SVG Export Plug-In . SVG Version: 6.00 Build 0)  -->

<svg version="1.1" id="_x32_" xmlns="http://www.w3.org/2000/svg" xmlns:xlink="http://www.w3.org/1999/xlink" x="0px" y="0px" viewBox="0 0 512 512" style="width: 256px; height: 256px; opacity: 1;" xml:space="preserve">
<g>
	<path class="st0" d="M256,89.604c23.404,0,42.37-18.973,42.37-42.37c0-23.404-18.966-42.37-42.37-42.37
		c-23.404,0-42.37,18.966-42.37,42.37C213.629,70.632,232.595,89.604,256,89.604z" style="fill: rgb(75, 75, 75);"></path>
	<path class="st0" d="M407.405,3.659c-8.247-6.112-19.903-4.392-26.015,3.854l-49.664,67.011
		c-12.609,17.008-32.542,27.043-53.72,27.043H256h-21.992c-21.192,0-41.111-10.035-53.719-27.043l-49.68-67.011
		c-6.112-8.246-17.752-9.967-25.999-3.854c-8.246,6.112-9.982,17.753-3.87,25.999l96.028,131.28
		c4.192,5.728,6.45,12.638,6.45,19.734v306.91c0,13.483,10.934,24.417,24.418,24.417c13.483,0,24.417-10.934,24.417-24.417V303.144
		H256h3.947v184.438c0,13.483,10.934,24.417,24.417,24.417c13.499,0,24.433-10.934,24.433-24.417v-306.91
		c0-7.096,2.258-14.006,6.45-19.734l96.012-131.28C417.371,21.412,415.636,9.771,407.405,3.659z" style="fill: rgb(75, 75, 75);"></path>
</g>
</svg>
