<!--?xml version="1.0" encoding="utf-8"?-->
<!-- Generator: Adobe Illustrator 18.1.1, SVG Export Plug-In . SVG Version: 6.00 Build 0)  -->

<svg version="1.1" id="_x32_" xmlns="http://www.w3.org/2000/svg" xmlns:xlink="http://www.w3.org/1999/xlink" x="0px" y="0px" viewBox="0 0 512 512" style="width: 256px; height: 256px; opacity: 1;" xml:space="preserve">
<g>
	<path class="st0" d="M240.679,112.761c24.747,0,44.788-20.05,44.788-44.797c0-24.739-20.041-44.804-44.788-44.804
		c-24.747,0-44.804,20.065-44.804,44.804C195.875,92.711,215.933,112.761,240.679,112.761z" style="fill: rgb(75, 75, 75);"></path>
	<path class="st0" d="M285.451,391.655l0.787-53.741c-5.235,1.983-10.807,3.035-16.541,3.035c-9.956,0-19.913-3.22-28.793-9.298
		c-5.38-3.702-10.648-7.387-15.626-10.904l9.282,63.954c0.546,12.711,3.533,25.204,8.816,36.783l25.373,74.609
		c5.058,12.864,19.576,19.222,32.454,14.172c12.864-5.042,19.207-19.568,14.164-32.439L285.451,391.655z" style="fill: rgb(75, 75, 75);"></path>
	<path class="st0" d="M414.148,209.009l0.016-0.064l-68.523-20.202l-50.216-39.65c-10.871-8.591-23.558-14.662-37.064-17.745
		l-41.914-9.555c-12.108-2.77-23.574-7.933-33.676-15.184l-31.908-27.356L122.326,14.2c-0.096-0.345-0.177-0.707-0.289-1.044
		c-3.244-9.996-13.971-15.464-23.96-12.22c-9.989,3.244-15.448,13.963-12.205,23.959c0.209,0.635,0.45,1.253,0.723,1.863
		l23.848,62.1c6.375,16.878,16.749,31.973,30.223,43.986l38.092,33.948l16.476,59.281l52.56,16.87l-1.83,6.849l-57.988-16.244
		c-32.937-10.542-55.772,10.534-52.256,44.796c2.296,22.41,10.101,105.853,10.101,105.853c0,13.826,11.193,25.028,25.036,25.028
		c13.827,0,25.036-11.201,25.036-25.028l-0.449-90.042c0,0,23.012,12.116,49.188,30.078c33.595,23.069,74.449-5.926,65.247-47.614
		c-4.689-21.327-14.292-68.54-14.292-68.54l12.719,7.532c15.096,8.944,31.652,15.159,48.915,18.347l48.129,9.644
		c9.651,2.127,19.19-3.967,21.294-13.602C428.681,220.732,423.14,211.595,414.148,209.009z" style="fill: rgb(75, 75, 75);"></path>
</g>
</svg>
